<svg width="25" height="25" viewBox="0 0 25 25" fill="none" xmlns="http://www.w3.org/2000/svg">
<path d="M16.667 13.5415L22.1076 17.1686C22.186 17.2208 22.2772 17.2507 22.3713 17.2552C22.4654 17.2597 22.5589 17.2386 22.642 17.1941C22.725 17.1497 22.7945 17.0835 22.8429 17.0027C22.8913 16.9219 22.9169 16.8295 22.917 16.7352V8.19775C22.917 8.1061 22.8929 8.01608 22.847 7.93675C22.8011 7.85743 22.7351 7.79162 22.6556 7.74597C22.5761 7.70032 22.486 7.67645 22.3944 7.67676C22.3027 7.67707 22.2128 7.70156 22.1337 7.74775L16.667 10.9373" stroke="#F0F5F9" stroke-width="2" stroke-linecap="round" stroke-linejoin="round"/>
<path d="M14.583 6.25H4.16634C3.01575 6.25 2.08301 7.18274 2.08301 8.33333V16.6667C2.08301 17.8173 3.01575 18.75 4.16634 18.75H14.583C15.7336 18.75 16.6663 17.8173 16.6663 16.6667V8.33333C16.6663 7.18274 15.7336 6.25 14.583 6.25Z" stroke="#F0F5F9" stroke-width="2" stroke-linecap="round" stroke-linejoin="round"/>
</svg>
