<svg width="20" height="22" viewBox="0 0 20 22" fill="none" xmlns="http://www.w3.org/2000/svg">
<path d="M15 4L12.586 1.586C12.211 1.2109 11.7024 1.00011 11.172 1H3C2.46957 1 1.96086 1.21071 1.58579 1.58579C1.21071 1.96086 1 2.46957 1 3V19C1 19.5304 1.21071 20.0391 1.58579 20.4142C1.96086 20.7893 2.46957 21 3 21H15C15.5304 21 16.0391 20.7893 16.4142 20.4142C16.7893 20.0391 17 19.5304 17 19" stroke="black" stroke-width="1.5" stroke-linecap="round" stroke-linejoin="round"/>
<path d="M18.379 11.6261C18.7773 11.2278 19.0011 10.6875 19.0011 10.1241C19.0011 9.56079 18.7773 9.0205 18.379 8.62215C17.9806 8.22379 17.4403 8 16.877 8C16.3136 8 15.7733 8.22379 15.375 8.62215L11.365 12.6341C11.1272 12.8718 10.9532 13.1655 10.859 13.4881L10.022 16.3581C9.99686 16.4442 9.99535 16.5354 10.0176 16.6222C10.0398 16.7091 10.085 16.7883 10.1484 16.8517C10.2118 16.9151 10.291 16.9603 10.3779 16.9825C10.4647 17.0048 10.5559 17.0032 10.642 16.9781L13.512 16.1411C13.8346 16.0469 14.1283 15.8729 14.366 15.6351L18.379 11.6261Z" stroke="black" stroke-width="1.5" stroke-linecap="round" stroke-linejoin="round"/>
<path d="M5 17H6" stroke="black" stroke-width="1.5" stroke-linecap="round" stroke-linejoin="round"/>
</svg>
