<svg width="27" height="27" viewBox="0 0 27 27" fill="none" xmlns="http://www.w3.org/2000/svg">
<path d="M9.82353 1H2.47059C1.6584 1 1 1.6584 1 2.47059V9.82353C1 10.6357 1.6584 11.2941 2.47059 11.2941H9.82353C10.6357 11.2941 11.2941 10.6357 11.2941 9.82353V2.47059C11.2941 1.6584 10.6357 1 9.82353 1Z" stroke="#0D062D" stroke-width="1.5" stroke-linecap="round" stroke-linejoin="round"/>
<path d="M24.5296 1H17.1766C16.3645 1 15.7061 1.6584 15.7061 2.47059V9.82353C15.7061 10.6357 16.3645 11.2941 17.1766 11.2941H24.5296C25.3418 11.2941 26.0002 10.6357 26.0002 9.82353V2.47059C26.0002 1.6584 25.3418 1 24.5296 1Z" stroke="#0D062D" stroke-width="1.5" stroke-linecap="round" stroke-linejoin="round"/>
<path d="M24.5296 15.7058H17.1766C16.3645 15.7058 15.7061 16.3642 15.7061 17.1764V24.5293C15.7061 25.3415 16.3645 25.9999 17.1766 25.9999H24.5296C25.3418 25.9999 26.0002 25.3415 26.0002 24.5293V17.1764C26.0002 16.3642 25.3418 15.7058 24.5296 15.7058Z" stroke="#0D062D" stroke-width="1.5" stroke-linecap="round" stroke-linejoin="round"/>
<path d="M9.82353 15.7058H2.47059C1.6584 15.7058 1 16.3642 1 17.1764V24.5293C1 25.3415 1.6584 25.9999 2.47059 25.9999H9.82353C10.6357 25.9999 11.2941 25.3415 11.2941 24.5293V17.1764C11.2941 16.3642 10.6357 15.7058 9.82353 15.7058Z" stroke="#0D062D" stroke-width="1.5" stroke-linecap="round" stroke-linejoin="round"/>
</svg>
