<svg width="42" height="42" viewBox="0 0 42 42" fill="none" xmlns="http://www.w3.org/2000/svg">
<path d="M18.1674 1V35.4876L23.4893 38.3145V3.82686L18.1674 1Z" fill="#33363A"/>
<path d="M9.41202 37.1837V12.3074L15.2489 14.8516V39.8693L9.41202 37.1837Z" fill="#33363A"/>
<path d="M34.8197 6.65371V33.3675L41 36.1943V9.48057L34.8197 6.65371Z" fill="#33363A"/>
<path d="M26.4077 14.8516V34.3569L32.4163 37.1837V16.9717L26.4077 14.8516Z" fill="#33363A"/>
<path d="M6.83691 41L1 38.3145V23.1908L6.83691 26.3004V41Z" fill="#33363A"/>
<path d="M18.1674 1V35.4876L23.4893 38.3145V3.82686L18.1674 1Z" stroke="#33363A"/>
<path d="M9.41202 37.1837V12.3074L15.2489 14.8516V39.8693L9.41202 37.1837Z" stroke="#33363A"/>
<path d="M34.8197 6.65371V33.3675L41 36.1943V9.48057L34.8197 6.65371Z" stroke="#33363A"/>
<path d="M26.4077 14.8516V34.3569L32.4163 37.1837V16.9717L26.4077 14.8516Z" stroke="#33363A"/>
<path d="M6.83691 41L1 38.3145V23.1908L6.83691 26.3004V41Z" stroke="#33363A"/>
</svg>
