<svg width="26" height="26" viewBox="0 0 26 26" fill="none" xmlns="http://www.w3.org/2000/svg">
<path d="M1 10.4443L1.8 10.4442L1 10.4443ZM1 20.9443L0.2 20.9443L1 20.9443ZM9 25.2443C9.44183 25.2443 9.8 24.8862 9.8 24.4443C9.8 24.0025 9.44183 23.6443 9 23.6443V25.2443ZM3.34153 7.72343C3.74107 7.53481 3.91206 7.05801 3.72343 6.65847C3.53481 6.25893 3.05801 6.08794 2.65847 6.27657L3.34153 7.72343ZM0.2 10.4444C0.200257 12.506 0.200081 17.4443 0.2 20.9443L1.8 20.9444C1.80008 17.4444 1.80026 12.5059 1.8 10.4442L0.2 10.4444ZM0.2 20.9443C0.19997 22.2218 0.838029 23.2987 1.64948 24.0363C2.4502 24.7642 3.50946 25.2443 4.5 25.2443V23.6443C3.99086 23.6443 3.30008 23.3745 2.72572 22.8524C2.16208 22.34 1.79998 21.6669 1.8 20.9444L0.2 20.9443ZM4.5 25.2443C4.50586 25.2443 4.51171 25.2443 4.51756 25.2443C4.52341 25.2443 4.52925 25.2443 4.53509 25.2443C4.54093 25.2443 4.54676 25.2443 4.55259 25.2443C4.55841 25.2443 4.56423 25.2443 4.57005 25.2443C4.57586 25.2443 4.58167 25.2443 4.58747 25.2443C4.59327 25.2443 4.59907 25.2443 4.60486 25.2443C4.61065 25.2443 4.61644 25.2443 4.62222 25.2443C4.628 25.2443 4.63377 25.2443 4.63954 25.2443C4.64531 25.2443 4.65107 25.2443 4.65683 25.2443C4.66259 25.2443 4.66834 25.2443 4.67408 25.2443C4.67983 25.2443 4.68557 25.2443 4.6913 25.2443C4.69704 25.2443 4.70276 25.2443 4.70849 25.2443C4.71421 25.2443 4.71993 25.2443 4.72564 25.2443C4.73135 25.2443 4.73705 25.2443 4.74275 25.2443C4.74845 25.2443 4.75415 25.2443 4.75984 25.2443C4.76552 25.2443 4.77121 25.2443 4.77688 25.2443C4.78256 25.2443 4.78823 25.2443 4.7939 25.2443C4.79956 25.2443 4.80522 25.2443 4.81088 25.2443C4.81653 25.2443 4.82218 25.2443 4.82782 25.2443C4.83346 25.2443 4.8391 25.2443 4.84473 25.2443C4.85036 25.2443 4.85599 25.2443 4.86161 25.2443C4.86723 25.2443 4.87284 25.2443 4.87845 25.2443C4.88406 25.2443 4.88966 25.2443 4.89525 25.2443C4.90085 25.2443 4.90644 25.2443 4.91203 25.2443C4.91761 25.2443 4.92319 25.2443 4.92877 25.2443C4.93434 25.2443 4.93991 25.2443 4.94547 25.2443C4.95103 25.2443 4.95659 25.2443 4.96214 25.2443C4.96769 25.2443 4.97324 25.2443 4.97878 25.2443C4.98431 25.2443 4.98985 25.2443 4.99538 25.2443C5.0009 25.2443 5.00643 25.2443 5.01194 25.2443C5.01746 25.2443 5.02297 25.2443 5.02848 25.2443C5.03398 25.2443 5.03948 25.2443 5.04497 25.2443C5.05047 25.2443 5.05595 25.2443 5.06144 25.2443C5.06692 25.2443 5.0724 25.2443 5.07787 25.2443C5.08334 25.2443 5.0888 25.2443 5.09426 25.2443C5.09972 25.2443 5.10517 25.2443 5.11062 25.2443C5.11607 25.2443 5.12151 25.2443 5.12695 25.2443C5.13238 25.2443 5.13782 25.2443 5.14324 25.2443C5.14867 25.2443 5.15408 25.2443 5.1595 25.2443C5.16491 25.2443 5.17032 25.2443 5.17572 25.2443C5.18112 25.2443 5.18652 25.2443 5.19191 25.2443C5.1973 25.2443 5.20269 25.2443 5.20807 25.2443C5.21344 25.2443 5.21882 25.2443 5.22419 25.2443C5.22955 25.2443 5.23491 25.2443 5.24027 25.2443C5.24563 25.2443 5.25098 25.2443 5.25632 25.2443C5.26167 25.2443 5.26701 25.2443 5.27234 25.2443C5.27767 25.2443 5.283 25.2443 5.28832 25.2443C5.29364 25.2443 5.29896 25.2443 5.30427 25.2443C5.30958 25.2443 5.31489 25.2443 5.32019 25.2443C5.32548 25.2443 5.33078 25.2443 5.33607 25.2443C5.34135 25.2443 5.34663 25.2443 5.35191 25.2443C5.35719 25.2443 5.36246 25.2443 5.36772 25.2443C5.37299 25.2443 5.37825 25.2443 5.3835 25.2443C5.38875 25.2443 5.394 25.2443 5.39924 25.2443C5.40448 25.2443 5.40972 25.2443 5.41495 25.2443C5.42018 25.2443 5.4254 25.2443 5.43062 25.2443C5.43584 25.2443 5.44106 25.2443 5.44626 25.2443C5.45147 25.2443 5.45667 25.2443 5.46187 25.2443C5.46706 25.2443 5.47225 25.2443 5.47744 25.2443C5.48262 25.2443 5.4878 25.2443 5.49297 25.2443C5.49815 25.2443 5.50332 25.2443 5.50848 25.2443C5.51364 25.2443 5.51879 25.2443 5.52394 25.2443C5.52909 25.2443 5.53424 25.2443 5.53938 25.2443C5.54452 25.2443 5.54965 25.2443 5.55478 25.2443C5.5599 25.2443 5.56503 25.2443 5.57014 25.2443C5.57526 25.2443 5.58037 25.2443 5.58547 25.2443C5.59058 25.2443 5.59567 25.2443 5.60077 25.2443C5.60586 25.2443 5.61095 25.2443 5.61603 25.2443C5.62111 25.2443 5.62619 25.2443 5.63126 25.2443C5.63633 25.2443 5.64139 25.2443 5.64645 25.2443C5.65151 25.2443 5.65656 25.2443 5.66161 25.2443C5.66666 25.2443 5.6717 25.2443 5.67673 25.2443C5.68177 25.2443 5.6868 25.2443 5.69182 25.2443C5.69685 25.2443 5.70187 25.2443 5.70688 25.2443C5.71189 25.2443 5.7169 25.2443 5.7219 25.2443C5.7269 25.2443 5.7319 25.2443 5.73689 25.2443C5.74188 25.2443 5.74686 25.2443 5.75184 25.2443C5.75682 25.2443 5.76179 25.2443 5.76676 25.2443C5.77172 25.2443 5.77669 25.2443 5.78164 25.2443C5.7866 25.2443 5.79155 25.2443 5.79649 25.2443C5.80143 25.2443 5.80637 25.2443 5.81131 25.2443C5.81624 25.2443 5.82117 25.2443 5.82609 25.2443C5.83101 25.2443 5.83592 25.2443 5.84083 25.2443C5.84574 25.2443 5.85065 25.2443 5.85555 25.2443C5.86044 25.2443 5.86534 25.2443 5.87022 25.2443C5.87511 25.2443 5.87999 25.2443 5.88487 25.2443C5.88974 25.2443 5.89461 25.2443 5.89948 25.2443C5.90434 25.2443 5.9092 25.2443 5.91405 25.2443C5.9189 25.2443 5.92375 25.2443 5.92859 25.2443C5.93343 25.2443 5.93827 25.2443 5.9431 25.2443C5.94793 25.2443 5.95275 25.2443 5.95757 25.2443C5.96239 25.2443 5.9672 25.2443 5.97201 25.2443C5.97681 25.2443 5.98161 25.2443 5.98641 25.2443C5.9912 25.2443 5.99599 25.2443 6.00078 25.2443C6.00556 25.2443 6.01034 25.2443 6.01511 25.2443C6.01989 25.2443 6.02465 25.2443 6.02941 25.2443C6.03417 25.2443 6.03893 25.2443 6.04368 25.2443C6.04843 25.2443 6.05317 25.2443 6.05791 25.2443C6.06265 25.2443 6.06738 25.2443 6.07211 25.2443C6.07683 25.2443 6.08155 25.2443 6.08627 25.2443C6.09098 25.2443 6.09569 25.2443 6.1004 25.2443C6.1051 25.2443 6.1098 25.2443 6.11449 25.2443C6.11918 25.2443 6.12387 25.2443 6.12855 25.2443C6.13323 25.2443 6.13791 25.2443 6.14258 25.2443C6.14725 25.2443 6.15191 25.2443 6.15657 25.2443C6.16123 25.2443 6.16588 25.2443 6.17052 25.2443C6.17517 25.2443 6.17981 25.2443 6.18445 25.2443C6.18908 25.2443 6.19371 25.2443 6.19833 25.2443C6.20296 25.2443 6.20758 25.2443 6.21219 25.2443C6.2168 25.2443 6.22141 25.2443 6.22601 25.2443C6.23061 25.2443 6.2352 25.2443 6.23979 25.2443C6.24438 25.2443 6.24896 25.2443 6.25354 25.2443C6.25812 25.2443 6.26269 25.2443 6.26726 25.2443C6.27183 25.2443 6.27639 25.2443 6.28094 25.2443C6.2855 25.2443 6.29004 25.2443 6.29459 25.2443C6.29913 25.2443 6.30367 25.2443 6.3082 25.2443C6.31273 25.2443 6.31726 25.2443 6.32178 25.2443C6.3263 25.2443 6.33082 25.2443 6.33533 25.2443C6.33983 25.2443 6.34434 25.2443 6.34884 25.2443C6.35333 25.2443 6.35782 25.2443 6.36231 25.2443C6.3668 25.2443 6.37128 25.2443 6.37575 25.2443C6.38023 25.2443 6.3847 25.2443 6.38916 25.2443C6.39362 25.2443 6.39808 25.2443 6.40253 25.2443C6.40698 25.2443 6.41143 25.2443 6.41587 25.2443C6.42031 25.2443 6.42475 25.2443 6.42917 25.2443C6.4336 25.2443 6.43803 25.2443 6.44244 25.2443C6.44686 25.2443 6.45127 25.2443 6.45568 25.2443C6.46009 25.2443 6.46449 25.2443 6.46888 25.2443C6.47328 25.2443 6.47766 25.2443 6.48205 25.2443C6.48643 25.2443 6.49081 25.2443 6.49518 25.2443C6.49955 25.2443 6.50392 25.2443 6.50828 25.2443C6.51264 25.2443 6.51699 25.2443 6.52134 25.2443C6.52569 25.2443 6.53003 25.2443 6.53437 25.2443C6.53871 25.2443 6.54304 25.2443 6.54737 25.2443C6.55169 25.2443 6.55601 25.2443 6.56033 25.2443C6.56464 25.2443 6.56895 25.2443 6.57325 25.2443C6.57756 25.2443 6.58185 25.2443 6.58615 25.2443C6.59044 25.2443 6.59472 25.2443 6.599 25.2443C6.60328 25.2443 6.60756 25.2443 6.61183 25.2443C6.6161 25.2443 6.62036 25.2443 6.62462 25.2443C6.62887 25.2443 6.63312 25.2443 6.63737 25.2443C6.64162 25.2443 6.64586 25.2443 6.65009 25.2443C6.65433 25.2443 6.65855 25.2443 6.66278 25.2443C6.667 25.2443 6.67122 25.2443 6.67543 25.2443C6.67964 25.2443 6.68385 25.2443 6.68805 25.2443C6.69225 25.2443 6.69644 25.2443 6.70063 25.2443C6.70482 25.2443 6.709 25.2443 6.71318 25.2443C6.71735 25.2443 6.72153 25.2443 6.72569 25.2443C6.72986 25.2443 6.73402 25.2443 6.73817 25.2443C6.74233 25.2443 6.74647 25.2443 6.75062 25.2443C6.75476 25.2443 6.7589 25.2443 6.76303 25.2443C6.76716 25.2443 6.77129 25.2443 6.77541 25.2443C6.77953 25.2443 6.78364 25.2443 6.78775 25.2443C6.79186 25.2443 6.79596 25.2443 6.80006 25.2443C6.80415 25.2443 6.80824 25.2443 6.81233 25.2443C6.81642 25.2443 6.8205 25.2443 6.82457 25.2443C6.82864 25.2443 6.83271 25.2443 6.83678 25.2443C6.84084 25.2443 6.84489 25.2443 6.84895 25.2443C6.853 25.2443 6.85704 25.2443 6.86108 25.2443C6.86512 25.2443 6.86916 25.2443 6.87318 25.2443C6.87721 25.2443 6.88124 25.2443 6.88525 25.2443C6.88927 25.2443 6.89328 25.2443 6.89729 25.2443C6.90129 25.2443 6.90529 25.2443 6.90929 25.2443C6.91328 25.2443 6.91727 25.2443 6.92125 25.2443C6.92523 25.2443 6.92921 25.2443 6.93318 25.2443C6.93715 25.2443 6.94112 25.2443 6.94508 25.2443C6.94904 25.2443 6.95299 25.2443 6.95694 25.2443C6.96089 25.2443 6.96483 25.2443 6.96877 25.2443C6.9727 25.2443 6.97663 25.2443 6.98056 25.2443C6.98448 25.2443 6.9884 25.2443 6.99232 25.2443C6.99623 25.2443 7.00014 25.2443 7.00404 25.2443C7.00795 25.2443 7.01184 25.2443 7.01573 25.2443C7.01962 25.2443 7.02351 25.2443 7.02739 25.2443C7.03127 25.2443 7.03514 25.2443 7.03901 25.2443C7.04288 25.2443 7.04674 25.2443 7.0506 25.2443C7.05445 25.2443 7.0583 25.2443 7.06215 25.2443C7.066 25.2443 7.06983 25.2443 7.07367 25.2443C7.0775 25.2443 7.08133 25.2443 7.08515 25.2443C7.08897 25.2443 7.09279 25.2443 7.0966 25.2443C7.10041 25.2443 7.10422 25.2443 7.10802 25.2443C7.11182 25.2443 7.11561 25.2443 7.1194 25.2443C7.12319 25.2443 7.12697 25.2443 7.13075 25.2443C7.13452 25.2443 7.13829 25.2443 7.14206 25.2443C7.14582 25.2443 7.14958 25.2443 7.15334 25.2443C7.15709 25.2443 7.16084 25.2443 7.16458 25.2443C7.16832 25.2443 7.17206 25.2443 7.17579 25.2443C7.17952 25.2443 7.18324 25.2443 7.18696 25.2443C7.19068 25.2443 7.1944 25.2443 7.1981 25.2443C7.20181 25.2443 7.20551 25.2443 7.20921 25.2443C7.21291 25.2443 7.2166 25.2443 7.22028 25.2443C7.22397 25.2443 7.22765 25.2443 7.23132 25.2443C7.23499 25.2443 7.23866 25.2443 7.24232 25.2443C7.24599 25.2443 7.24964 25.2443 7.25329 25.2443C7.25694 25.2443 7.26059 25.2443 7.26423 25.2443C7.26787 25.2443 7.2715 25.2443 7.27513 25.2443C7.27876 25.2443 7.28238 25.2443 7.28599 25.2443C7.28961 25.2443 7.29322 25.2443 7.29683 25.2443C7.30043 25.2443 7.30403 25.2443 7.30762 25.2443C7.31122 25.2443 7.3148 25.2443 7.31839 25.2443C7.32197 25.2443 7.32554 25.2443 7.32911 25.2443C7.33269 25.2443 7.33625 25.2443 7.33981 25.2443C7.34337 25.2443 7.34692 25.2443 7.35047 25.2443C7.35402 25.2443 7.35756 25.2443 7.36109 25.2443C7.36463 25.2443 7.36816 25.2443 7.37169 25.2443C7.37521 25.2443 7.37873 25.2443 7.38224 25.2443C7.38576 25.2443 7.38926 25.2443 7.39277 25.2443C7.39627 25.2443 7.39976 25.2443 7.40325 25.2443C7.40674 25.2443 7.41023 25.2443 7.41371 25.2443C7.41719 25.2443 7.42066 25.2443 7.42413 25.2443C7.4276 25.2443 7.43106 25.2443 7.43451 25.2443C7.43797 25.2443 7.44142 25.2443 7.44486 25.2443C7.44831 25.2443 7.45175 25.2443 7.45518 25.2443C7.45861 25.2443 7.46204 25.2443 7.46546 25.2443C7.46888 25.2443 7.4723 25.2443 7.47571 25.2443C7.47912 25.2443 7.48253 25.2443 7.48592 25.2443C7.48932 25.2443 7.49272 25.2443 7.4961 25.2443C7.49949 25.2443 7.50287 25.2443 7.50625 25.2443C7.50962 25.2443 7.51299 25.2443 7.51636 25.2443C7.51972 25.2443 7.52308 25.2443 7.52643 25.2443C7.52979 25.2443 7.53314 25.2443 7.53648 25.2443C7.53982 25.2443 7.54315 25.2443 7.54648 25.2443C7.54981 25.2443 7.55314 25.2443 7.55646 25.2443C7.55978 25.2443 7.56309 25.2443 7.5664 25.2443C7.5697 25.2443 7.57301 25.2443 7.5763 25.2443C7.5796 25.2443 7.58289 25.2443 7.58617 25.2443C7.58946 25.2443 7.59273 25.2443 7.59601 25.2443C7.59928 25.2443 7.60255 25.2443 7.60581 25.2443C7.60907 25.2443 7.61233 25.2443 7.61558 25.2443C7.61883 25.2443 7.62207 25.2443 7.62531 25.2443C7.62855 25.2443 7.63178 25.2443 7.63501 25.2443C7.63823 25.2443 7.64146 25.2443 7.64467 25.2443C7.64789 25.2443 7.6511 25.2443 7.6543 25.2443C7.65751 25.2443 7.6607 25.2443 7.6639 25.2443C7.66709 25.2443 7.67028 25.2443 7.67346 25.2443C7.67664 25.2443 7.67981 25.2443 7.68298 25.2443C7.68615 25.2443 7.68932 25.2443 7.69248 25.2443C7.69564 25.2443 7.69879 25.2443 7.70194 25.2443C7.70508 25.2443 7.70822 25.2443 7.71136 25.2443C7.71449 25.2443 7.71762 25.2443 7.72075 25.2443C7.72387 25.2443 7.72699 25.2443 7.7301 25.2443C7.73322 25.2443 7.73632 25.2443 7.73942 25.2443C7.74253 25.2443 7.74562 25.2443 7.74871 25.2443C7.7518 25.2443 7.75489 25.2443 7.75796 25.2443C7.76104 25.2443 7.76411 25.2443 7.76718 25.2443C7.77025 25.2443 7.77331 25.2443 7.77636 25.2443C7.77942 25.2443 7.78247 25.2443 7.78551 25.2443C7.78856 25.2443 7.7916 25.2443 7.79463 25.2443C7.79766 25.2443 7.80069 25.2443 7.80371 25.2443C7.80673 25.2443 7.80975 25.2443 7.81276 25.2443C7.81576 25.2443 7.81877 25.2443 7.82177 25.2443C7.82477 25.2443 7.82776 25.2443 7.83074 25.2443C7.83373 25.2443 7.83671 25.2443 7.83969 25.2443C7.84266 25.2443 7.84563 25.2443 7.8486 25.2443C7.85156 25.2443 7.85452 25.2443 7.85747 25.2443C7.86042 25.2443 7.86337 25.2443 7.86631 25.2443C7.86925 25.2443 7.87219 25.2443 7.87512 25.2443C7.87805 25.2443 7.88097 25.2443 7.88389 25.2443C7.88681 25.2443 7.88972 25.2443 7.89263 25.2443C7.89553 25.2443 7.89843 25.2443 7.90133 25.2443C7.90422 25.2443 7.90711 25.2443 7.91 25.2443C7.91288 25.2443 7.91576 25.2443 7.91863 25.2443C7.9215 25.2443 7.92437 25.2443 7.92723 25.2443C7.93009 25.2443 7.93295 25.2443 7.9358 25.2443C7.93865 25.2443 7.94149 25.2443 7.94433 25.2443C7.94717 25.2443 7.95 25.2443 7.95282 25.2443C7.95565 25.2443 7.95847 25.2443 7.96129 25.2443C7.9641 25.2443 7.96691 25.2443 7.96971 25.2443C7.97252 25.2443 7.97532 25.2443 7.97811 25.2443C7.9809 25.2443 7.98369 25.2443 7.98647 25.2443C7.98925 25.2443 7.99202 25.2443 7.99479 25.2443C7.99756 25.2443 8.00033 25.2443 8.00308 25.2443C8.00584 25.2443 8.00859 25.2443 8.01134 25.2443C8.01409 25.2443 8.01683 25.2443 8.01956 25.2443C8.0223 25.2443 8.02503 25.2443 8.02775 25.2443C8.03047 25.2443 8.03319 25.2443 8.0359 25.2443C8.03861 25.2443 8.04132 25.2443 8.04402 25.2443C8.04672 25.2443 8.04942 25.2443 8.05211 25.2443C8.0548 25.2443 8.05748 25.2443 8.06016 25.2443C8.06283 25.2443 8.06551 25.2443 8.06817 25.2443C8.07084 25.2443 8.0735 25.2443 8.07615 25.2443C8.07881 25.2443 8.08146 25.2443 8.0841 25.2443C8.08675 25.2443 8.08938 25.2443 8.09202 25.2443C8.09465 25.2443 8.09727 25.2443 8.09989 25.2443C8.10251 25.2443 8.10513 25.2443 8.10774 25.2443C8.11035 25.2443 8.11295 25.2443 8.11555 25.2443C8.11815 25.2443 8.12074 25.2443 8.12332 25.2443C8.12591 25.2443 8.12849 25.2443 8.13107 25.2443C8.13364 25.2443 8.13621 25.2443 8.13877 25.2443C8.14134 25.2443 8.14389 25.2443 8.14645 25.2443C8.149 25.2443 8.15154 25.2443 8.15408 25.2443C8.15662 25.2443 8.15916 25.2443 8.16169 25.2443C8.16422 25.2443 8.16674 25.2443 8.16926 25.2443C8.17177 25.2443 8.17429 25.2443 8.17679 25.2443C8.1793 25.2443 8.1818 25.2443 8.18429 25.2443C8.18679 25.2443 8.18928 25.2443 8.19176 25.2443C8.19424 25.2443 8.19672 25.2443 8.19919 25.2443C8.20166 25.2443 8.20413 25.2443 8.20659 25.2443C8.20905 25.2443 8.21151 25.2443 8.21395 25.2443C8.2164 25.2443 8.21885 25.2443 8.22128 25.2443C8.22372 25.2443 8.22615 25.2443 8.22858 25.2443C8.231 25.2443 8.23343 25.2443 8.23584 25.2443C8.23825 25.2443 8.24066 25.2443 8.24307 25.2443C8.24547 25.2443 8.24787 25.2443 8.25026 25.2443C8.25265 25.2443 8.25504 25.2443 8.25742 25.2443C8.2598 25.2443 8.26217 25.2443 8.26454 25.2443C8.26691 25.2443 8.26927 25.2443 8.27163 25.2443C8.27399 25.2443 8.27634 25.2443 8.27868 25.2443C8.28103 25.2443 8.28337 25.2443 8.2857 25.2443C8.28804 25.2443 8.29037 25.2443 8.29269 25.2443C8.29501 25.2443 8.29733 25.2443 8.29964 25.2443C8.30195 25.2443 8.30426 25.2443 8.30656 25.2443C8.30886 25.2443 8.31115 25.2443 8.31344 25.2443C8.31573 25.2443 8.31801 25.2443 8.32029 25.2443C8.32257 25.2443 8.32484 25.2443 8.3271 25.2443C8.32937 25.2443 8.33163 25.2443 8.33388 25.2443C8.33614 25.2443 8.33839 25.2443 8.34063 25.2443C8.34287 25.2443 8.34511 25.2443 8.34734 25.2443C8.34957 25.2443 8.3518 25.2443 8.35402 25.2443C8.35624 25.2443 8.35845 25.2443 8.36066 25.2443C8.36287 25.2443 8.36507 25.2443 8.36727 25.2443C8.36947 25.2443 8.37166 25.2443 8.37384 25.2443C8.37603 25.2443 8.37821 25.2443 8.38038 25.2443C8.38256 25.2443 8.38473 25.2443 8.38689 25.2443C8.38905 25.2443 8.39121 25.2443 8.39336 25.2443C8.39551 25.2443 8.39766 25.2443 8.3998 25.2443C8.40194 25.2443 8.40407 25.2443 8.4062 25.2443C8.40833 25.2443 8.41045 25.2443 8.41257 25.2443C8.41468 25.2443 8.41679 25.2443 8.4189 25.2443C8.42101 25.2443 8.42311 25.2443 8.4252 25.2443C8.42729 25.2443 8.42938 25.2443 8.43146 25.2443C8.43355 25.2443 8.43562 25.2443 8.4377 25.2443C8.43977 25.2443 8.44183 25.2443 8.44389 25.2443C8.44595 25.2443 8.44801 25.2443 8.45005 25.2443C8.4521 25.2443 8.45414 25.2443 8.45618 25.2443C8.45822 25.2443 8.46025 25.2443 8.46228 25.2443C8.4643 25.2443 8.46632 25.2443 8.46833 25.2443C8.47035 25.2443 8.47236 25.2443 8.47436 25.2443C8.47636 25.2443 8.47836 25.2443 8.48035 25.2443C8.48234 25.2443 8.48433 25.2443 8.48631 25.2443C8.48829 25.2443 8.49026 25.2443 8.49223 25.2443C8.49419 25.2443 8.49616 25.2443 8.49811 25.2443C8.50007 25.2443 8.50202 25.2443 8.50397 25.2443C8.50591 25.2443 8.50785 25.2443 8.50979 25.2443C8.51172 25.2443 8.51365 25.2443 8.51557 25.2443C8.51749 25.2443 8.51941 25.2443 8.52132 25.2443C8.52323 25.2443 8.52514 25.2443 8.52704 25.2443C8.52894 25.2443 8.53083 25.2443 8.53272 25.2443C8.53461 25.2443 8.53649 25.2443 8.53836 25.2443C8.54024 25.2443 8.54211 25.2443 8.54398 25.2443C8.54584 25.2443 8.5477 25.2443 8.54956 25.2443C8.55141 25.2443 8.55326 25.2443 8.5551 25.2443C8.55694 25.2443 8.55878 25.2443 8.56061 25.2443C8.56244 25.2443 8.56427 25.2443 8.56608 25.2443C8.5679 25.2443 8.56972 25.2443 8.57153 25.2443C8.57333 25.2443 8.57514 25.2443 8.57693 25.2443C8.57873 25.2443 8.58052 25.2443 8.5823 25.2443C8.58409 25.2443 8.58587 25.2443 8.58764 25.2443C8.58942 25.2443 8.59118 25.2443 8.59295 25.2443C8.59471 25.2443 8.59647 25.2443 8.59822 25.2443C8.59997 25.2443 8.60171 25.2443 8.60345 25.2443C8.60519 25.2443 8.60692 25.2443 8.60865 25.2443C8.61038 25.2443 8.6121 25.2443 8.61382 25.2443C8.61553 25.2443 8.61725 25.2443 8.61895 25.2443C8.62066 25.2443 8.62235 25.2443 8.62405 25.2443C8.62574 25.2443 8.62743 25.2443 8.62911 25.2443C8.63079 25.2443 8.63247 25.2443 8.63414 25.2443C8.63581 25.2443 8.63748 25.2443 8.63914 25.2443C8.64079 25.2443 8.64245 25.2443 8.6441 25.2443C8.64574 25.2443 8.64739 25.2443 8.64902 25.2443C8.65066 25.2443 8.65229 25.2443 8.65391 25.2443C8.65554 25.2443 8.65716 25.2443 8.65877 25.2443C8.66038 25.2443 8.66199 25.2443 8.66359 25.2443C8.6652 25.2443 8.66679 25.2443 8.66838 25.2443C8.66997 25.2443 8.67156 25.2443 8.67314 25.2443C8.67472 25.2443 8.67629 25.2443 8.67786 25.2443C8.67943 25.2443 8.68099 25.2443 8.68254 25.2443C8.6841 25.2443 8.68565 25.2443 8.68719 25.2443C8.68874 25.2443 8.69028 25.2443 8.69181 25.2443C8.69335 25.2443 8.69487 25.2443 8.69639 25.2443C8.69792 25.2443 8.69943 25.2443 8.70094 25.2443C8.70245 25.2443 8.70396 25.2443 8.70546 25.2443C8.70696 25.2443 8.70845 25.2443 8.70994 25.2443C8.71142 25.2443 8.71291 25.2443 8.71438 25.2443C8.71586 25.2443 8.71733 25.2443 8.71879 25.2443C8.72026 25.2443 8.72172 25.2443 8.72317 25.2443C8.72462 25.2443 8.72607 25.2443 8.72751 25.2443C8.72895 25.2443 8.73039 25.2443 8.73182 25.2443C8.73325 25.2443 8.73468 25.2443 8.73609 25.2443C8.73751 25.2443 8.73893 25.2443 8.74033 25.2443C8.74174 25.2443 8.74314 25.2443 8.74454 25.2443C8.74594 25.2443 8.74733 25.2443 8.74871 25.2443C8.75009 25.2443 8.75147 25.2443 8.75285 25.2443C8.75422 25.2443 8.75559 25.2443 8.75695 25.2443C8.75831 25.2443 8.75967 25.2443 8.76102 25.2443C8.76237 25.2443 8.76371 25.2443 8.76505 25.2443C8.76639 25.2443 8.76772 25.2443 8.76905 25.2443C8.77038 25.2443 8.7717 25.2443 8.77301 25.2443C8.77433 25.2443 8.77564 25.2443 8.77694 25.2443C8.77825 25.2443 8.77955 25.2443 8.78084 25.2443C8.78213 25.2443 8.78342 25.2443 8.7847 25.2443C8.78598 25.2443 8.78726 25.2443 8.78853 25.2443C8.7898 25.2443 8.79106 25.2443 8.79232 25.2443C8.79358 25.2443 8.79484 25.2443 8.79608 25.2443C8.79733 25.2443 8.79857 25.2443 8.79981 25.2443C8.80104 25.2443 8.80227 25.2443 8.8035 25.2443C8.80472 25.2443 8.80594 25.2443 8.80715 25.2443C8.80837 25.2443 8.80957 25.2443 8.81077 25.2443C8.81198 25.2443 8.81317 25.2443 8.81436 25.2443C8.81555 25.2443 8.81674 25.2443 8.81791 25.2443C8.81909 25.2443 8.82027 25.2443 8.82143 25.2443C8.8226 25.2443 8.82376 25.2443 8.82492 25.2443C8.82607 25.2443 8.82722 25.2443 8.82837 25.2443C8.82951 25.2443 8.83065 25.2443 8.83178 25.2443C8.83292 25.2443 8.83404 25.2443 8.83516 25.2443C8.83629 25.2443 8.8374 25.2443 8.83851 25.2443C8.83962 25.2443 8.84072 25.2443 8.84182 25.2443C8.84292 25.2443 8.84401 25.2443 8.8451 25.2443C8.84619 25.2443 8.84727 25.2443 8.84835 25.2443C8.84942 25.2443 8.85049 25.2443 8.85156 25.2443C8.85262 25.2443 8.85368 25.2443 8.85473 25.2443C8.85578 25.2443 8.85683 25.2443 8.85787 25.2443C8.85891 25.2443 8.85995 25.2443 8.86098 25.2443C8.86201 25.2443 8.86303 25.2443 8.86405 25.2443C8.86507 25.2443 8.86608 25.2443 8.86709 25.2443C8.8681 25.2443 8.8691 25.2443 8.87009 25.2443C8.87109 25.2443 8.87208 25.2443 8.87306 25.2443C8.87405 25.2443 8.87502 25.2443 8.876 25.2443C8.87697 25.2443 8.87794 25.2443 8.8789 25.2443C8.87986 25.2443 8.88081 25.2443 8.88176 25.2443C8.88271 25.2443 8.88366 25.2443 8.88459 25.2443C8.88553 25.2443 8.88647 25.2443 8.88739 25.2443C8.88832 25.2443 8.88924 25.2443 8.89016 25.2443C8.89107 25.2443 8.89198 25.2443 8.89288 25.2443C8.89379 25.2443 8.89469 25.2443 8.89558 25.2443C8.89647 25.2443 8.89736 25.2443 8.89824 25.2443C8.89912 25.2443 8.9 25.2443 8.90087 25.2443C8.90174 25.2443 8.9026 25.2443 8.90346 25.2443C8.90432 25.2443 8.90517 25.2443 8.90601 25.2443C8.90686 25.2443 8.9077 25.2443 8.90854 25.2443C8.90937 25.2443 8.9102 25.2443 8.91103 25.2443C8.91185 25.2443 8.91267 25.2443 8.91348 25.2443C8.91429 25.2443 8.9151 25.2443 8.9159 25.2443C8.9167 25.2443 8.9175 25.2443 8.91829 25.2443C8.91908 25.2443 8.91986 25.2443 8.92064 25.2443C8.92142 25.2443 8.92219 25.2443 8.92296 25.2443C8.92372 25.2443 8.92448 25.2443 8.92524 25.2443C8.92599 25.2443 8.92674 25.2443 8.92749 25.2443C8.92823 25.2443 8.92897 25.2443 8.9297 25.2443C8.93043 25.2443 8.93116 25.2443 8.93188 25.2443C8.9326 25.2443 8.93332 25.2443 8.93403 25.2443C8.93473 25.2443 8.93544 25.2443 8.93614 25.2443C8.93683 25.2443 8.93753 25.2443 8.93821 25.2443C8.9389 25.2443 8.93958 25.2443 8.94026 25.2443C8.94093 25.2443 8.9416 25.2443 8.94226 25.2443C8.94293 25.2443 8.94359 25.2443 8.94424 25.2443C8.94489 25.2443 8.94554 25.2443 8.94618 25.2443C8.94682 25.2443 8.94745 25.2443 8.94808 25.2443C8.94871 25.2443 8.94934 25.2443 8.94995 25.2443C8.95057 25.2443 8.95118 25.2443 8.95179 25.2443C8.9524 25.2443 8.953 25.2443 8.95359 25.2443C8.95419 25.2443 8.95478 25.2443 8.95536 25.2443C8.95594 25.2443 8.95652 25.2443 8.95709 25.2443C8.95766 25.2443 8.95823 25.2443 8.95879 25.2443C8.95935 25.2443 8.95991 25.2443 8.96046 25.2443C8.96101 25.2443 8.96155 25.2443 8.96209 25.2443C8.96263 25.2443 8.96316 25.2443 8.96368 25.2443C8.96421 25.2443 8.96473 25.2443 8.96525 25.2443C8.96576 25.2443 8.96627 25.2443 8.96677 25.2443C8.96728 25.2443 8.96777 25.2443 8.96827 25.2443C8.96876 25.2443 8.96924 25.2443 8.96972 25.2443C8.97021 25.2443 8.97068 25.2443 8.97115 25.2443C8.97162 25.2443 8.97208 25.2443 8.97254 25.2443C8.973 25.2443 8.97345 25.2443 8.9739 25.2443C8.97434 25.2443 8.97478 25.2443 8.97522 25.2443C8.97565 25.2443 8.97608 25.2443 8.9765 25.2443C8.97693 25.2443 8.97734 25.2443 8.97776 25.2443C8.97817 25.2443 8.97858 25.2443 8.97898 25.2443C8.97938 25.2443 8.97977 25.2443 8.98016 25.2443C8.98055 25.2443 8.98093 25.2443 8.98131 25.2443C8.98169 25.2443 8.98206 25.2443 8.98243 25.2443C8.98279 25.2443 8.98315 25.2443 8.98351 25.2443C8.98386 25.2443 8.98421 25.2443 8.98455 25.2443C8.9849 25.2443 8.98523 25.2443 8.98557 25.2443C8.9859 25.2443 8.98622 25.2443 8.98654 25.2443C8.98686 25.2443 8.98718 25.2443 8.98749 25.2443C8.9878 25.2443 8.9881 25.2443 8.9884 25.2443C8.9887 25.2443 8.98899 25.2443 8.98927 25.2443C8.98956 25.2443 8.98984 25.2443 8.99011 25.2443C8.99039 25.2443 8.99066 25.2443 8.99092 25.2443C8.99118 25.2443 8.99144 25.2443 8.99169 25.2443C8.99194 25.2443 8.99219 25.2443 8.99243 25.2443C8.99267 25.2443 8.99291 25.2443 8.99313 25.2443C8.99336 25.2443 8.99359 25.2443 8.9938 25.2443C8.99402 25.2443 8.99423 25.2443 8.99444 25.2443C8.99465 25.2443 8.99485 25.2443 8.99504 25.2443C8.99523 25.2443 8.99542 25.2443 8.99561 25.2443C8.99579 25.2443 8.99597 25.2443 8.99614 25.2443C8.99631 25.2443 8.99648 25.2443 8.99664 25.2443C8.9968 25.2443 8.99695 25.2443 8.9971 25.2443C8.99725 25.2443 8.99739 25.2443 8.99753 25.2443C8.99767 25.2443 8.9978 25.2443 8.99792 25.2443C8.99805 25.2443 8.99817 25.2443 8.99828 25.2443C8.9984 25.2443 8.99851 25.2443 8.99861 25.2443C8.99871 25.2443 8.99881 25.2443 8.9989 25.2443C8.99899 25.2443 8.99908 25.2443 8.99916 25.2443C8.99924 25.2443 8.99931 25.2443 8.99938 25.2443C8.99945 25.2443 8.99951 25.2443 8.99957 25.2443C8.99963 25.2443 8.99968 25.2443 8.99973 25.2443C8.99977 25.2443 8.99981 25.2443 8.99985 25.2443C8.99988 25.2443 8.99991 25.2443 8.99993 25.2443C8.99995 25.2443 8.99997 25.2443 8.99998 25.2443C8.99999 25.2443 9 25.2443 9 24.4443C9 23.6443 8.99999 23.6443 8.99998 23.6443C8.99997 23.6443 8.99995 23.6443 8.99993 23.6443C8.99991 23.6443 8.99988 23.6443 8.99985 23.6443C8.99981 23.6443 8.99977 23.6443 8.99973 23.6443C8.99968 23.6443 8.99963 23.6443 8.99957 23.6443C8.99951 23.6443 8.99945 23.6443 8.99938 23.6443C8.99931 23.6443 8.99924 23.6443 8.99916 23.6443C8.99908 23.6443 8.99899 23.6443 8.9989 23.6443C8.99881 23.6443 8.99871 23.6443 8.99861 23.6443C8.99851 23.6443 8.9984 23.6443 8.99828 23.6443C8.99817 23.6443 8.99805 23.6443 8.99792 23.6443C8.9978 23.6443 8.99767 23.6443 8.99753 23.6443C8.99739 23.6443 8.99725 23.6443 8.9971 23.6443C8.99695 23.6443 8.9968 23.6443 8.99664 23.6443C8.99648 23.6443 8.99631 23.6443 8.99614 23.6443C8.99597 23.6443 8.99579 23.6443 8.99561 23.6443C8.99542 23.6443 8.99523 23.6443 8.99504 23.6443C8.99485 23.6443 8.99465 23.6443 8.99444 23.6443C8.99423 23.6443 8.99402 23.6443 8.9938 23.6443C8.99359 23.6443 8.99336 23.6443 8.99313 23.6443C8.99291 23.6443 8.99267 23.6443 8.99243 23.6443C8.99219 23.6443 8.99194 23.6443 8.99169 23.6443C8.99144 23.6443 8.99118 23.6443 8.99092 23.6443C8.99066 23.6443 8.99039 23.6443 8.99011 23.6443C8.98984 23.6443 8.98956 23.6443 8.98927 23.6443C8.98899 23.6443 8.9887 23.6443 8.9884 23.6443C8.9881 23.6443 8.9878 23.6443 8.98749 23.6443C8.98718 23.6443 8.98686 23.6443 8.98654 23.6443C8.98622 23.6443 8.9859 23.6443 8.98557 23.6443C8.98523 23.6443 8.9849 23.6443 8.98455 23.6443C8.98421 23.6443 8.98386 23.6443 8.98351 23.6443C8.98315 23.6443 8.98279 23.6443 8.98243 23.6443C8.98206 23.6443 8.98169 23.6443 8.98131 23.6443C8.98093 23.6443 8.98055 23.6443 8.98016 23.6443C8.97977 23.6443 8.97938 23.6443 8.97898 23.6443C8.97858 23.6443 8.97817 23.6443 8.97776 23.6443C8.97734 23.6443 8.97693 23.6443 8.9765 23.6443C8.97608 23.6443 8.97565 23.6443 8.97522 23.6443C8.97478 23.6443 8.97434 23.6443 8.9739 23.6443C8.97345 23.6443 8.973 23.6443 8.97254 23.6443C8.97208 23.6443 8.97162 23.6443 8.97115 23.6443C8.97068 23.6443 8.97021 23.6443 8.96972 23.6443C8.96924 23.6443 8.96876 23.6443 8.96827 23.6443C8.96777 23.6443 8.96728 23.6443 8.96677 23.6443C8.96627 23.6443 8.96576 23.6443 8.96525 23.6443C8.96473 23.6443 8.96421 23.6443 8.96368 23.6443C8.96316 23.6443 8.96263 23.6443 8.96209 23.6443C8.96155 23.6443 8.96101 23.6443 8.96046 23.6443C8.95991 23.6443 8.95935 23.6443 8.95879 23.6443C8.95823 23.6443 8.95766 23.6443 8.95709 23.6443C8.95652 23.6443 8.95594 23.6443 8.95536 23.6443C8.95478 23.6443 8.95419 23.6443 8.95359 23.6443C8.953 23.6443 8.9524 23.6443 8.95179 23.6443C8.95118 23.6443 8.95057 23.6443 8.94995 23.6443C8.94934 23.6443 8.94871 23.6443 8.94808 23.6443C8.94745 23.6443 8.94682 23.6443 8.94618 23.6443C8.94554 23.6443 8.94489 23.6443 8.94424 23.6443C8.94359 23.6443 8.94293 23.6443 8.94226 23.6443C8.9416 23.6443 8.94093 23.6443 8.94026 23.6443C8.93958 23.6443 8.9389 23.6443 8.93821 23.6443C8.93753 23.6443 8.93683 23.6443 8.93614 23.6443C8.93544 23.6443 8.93473 23.6443 8.93403 23.6443C8.93332 23.6443 8.9326 23.6443 8.93188 23.6443C8.93116 23.6443 8.93043 23.6443 8.9297 23.6443C8.92897 23.6443 8.92823 23.6443 8.92749 23.6443C8.92674 23.6443 8.92599 23.6443 8.92524 23.6443C8.92448 23.6443 8.92372 23.6443 8.92296 23.6443C8.92219 23.6443 8.92142 23.6443 8.92064 23.6443C8.91986 23.6443 8.91908 23.6443 8.91829 23.6443C8.9175 23.6443 8.9167 23.6443 8.9159 23.6443C8.9151 23.6443 8.91429 23.6443 8.91348 23.6443C8.91267 23.6443 8.91185 23.6443 8.91103 23.6443C8.9102 23.6443 8.90937 23.6443 8.90854 23.6443C8.9077 23.6443 8.90686 23.6443 8.90601 23.6443C8.90517 23.6443 8.90432 23.6443 8.90346 23.6443C8.9026 23.6443 8.90174 23.6443 8.90087 23.6443C8.9 23.6443 8.89912 23.6443 8.89824 23.6443C8.89736 23.6443 8.89647 23.6443 8.89558 23.6443C8.89469 23.6443 8.89379 23.6443 8.89288 23.6443C8.89198 23.6443 8.89107 23.6443 8.89016 23.6443C8.88924 23.6443 8.88832 23.6443 8.88739 23.6443C8.88647 23.6443 8.88553 23.6443 8.88459 23.6443C8.88366 23.6443 8.88271 23.6443 8.88176 23.6443C8.88081 23.6443 8.87986 23.6443 8.8789 23.6443C8.87794 23.6443 8.87697 23.6443 8.876 23.6443C8.87502 23.6443 8.87405 23.6443 8.87306 23.6443C8.87208 23.6443 8.87109 23.6443 8.87009 23.6443C8.8691 23.6443 8.8681 23.6443 8.86709 23.6443C8.86608 23.6443 8.86507 23.6443 8.86405 23.6443C8.86303 23.6443 8.86201 23.6443 8.86098 23.6443C8.85995 23.6443 8.85891 23.6443 8.85787 23.6443C8.85683 23.6443 8.85578 23.6443 8.85473 23.6443C8.85368 23.6443 8.85262 23.6443 8.85156 23.6443C8.85049 23.6443 8.84942 23.6443 8.84835 23.6443C8.84727 23.6443 8.84619 23.6443 8.8451 23.6443C8.84401 23.6443 8.84292 23.6443 8.84182 23.6443C8.84072 23.6443 8.83962 23.6443 8.83851 23.6443C8.8374 23.6443 8.83629 23.6443 8.83516 23.6443C8.83404 23.6443 8.83292 23.6443 8.83178 23.6443C8.83065 23.6443 8.82951 23.6443 8.82837 23.6443C8.82722 23.6443 8.82607 23.6443 8.82492 23.6443C8.82376 23.6443 8.8226 23.6443 8.82143 23.6443C8.82027 23.6443 8.81909 23.6443 8.81791 23.6443C8.81674 23.6443 8.81555 23.6443 8.81436 23.6443C8.81317 23.6443 8.81198 23.6443 8.81077 23.6443C8.80957 23.6443 8.80837 23.6443 8.80715 23.6443C8.80594 23.6443 8.80472 23.6443 8.8035 23.6443C8.80227 23.6443 8.80104 23.6443 8.79981 23.6443C8.79857 23.6443 8.79733 23.6443 8.79608 23.6443C8.79484 23.6443 8.79358 23.6443 8.79232 23.6443C8.79106 23.6443 8.7898 23.6443 8.78853 23.6443C8.78726 23.6443 8.78598 23.6443 8.7847 23.6443C8.78342 23.6443 8.78213 23.6443 8.78084 23.6443C8.77955 23.6443 8.77825 23.6443 8.77694 23.6443C8.77564 23.6443 8.77433 23.6443 8.77301 23.6443C8.7717 23.6443 8.77038 23.6443 8.76905 23.6443C8.76772 23.6443 8.76639 23.6443 8.76505 23.6443C8.76371 23.6443 8.76237 23.6443 8.76102 23.6443C8.75967 23.6443 8.75831 23.6443 8.75695 23.6443C8.75559 23.6443 8.75422 23.6443 8.75285 23.6443C8.75147 23.6443 8.75009 23.6443 8.74871 23.6443C8.74733 23.6443 8.74594 23.6443 8.74454 23.6443C8.74314 23.6443 8.74174 23.6443 8.74033 23.6443C8.73893 23.6443 8.73751 23.6443 8.73609 23.6443C8.73468 23.6443 8.73325 23.6443 8.73182 23.6443C8.73039 23.6443 8.72895 23.6443 8.72751 23.6443C8.72607 23.6443 8.72462 23.6443 8.72317 23.6443C8.72172 23.6443 8.72026 23.6443 8.71879 23.6443C8.71733 23.6443 8.71586 23.6443 8.71438 23.6443C8.71291 23.6443 8.71142 23.6443 8.70994 23.6443C8.70845 23.6443 8.70696 23.6443 8.70546 23.6443C8.70396 23.6443 8.70245 23.6443 8.70094 23.6443C8.69943 23.6443 8.69792 23.6443 8.69639 23.6443C8.69487 23.6443 8.69335 23.6443 8.69181 23.6443C8.69028 23.6443 8.68874 23.6443 8.68719 23.6443C8.68565 23.6443 8.6841 23.6443 8.68254 23.6443C8.68099 23.6443 8.67943 23.6443 8.67786 23.6443C8.67629 23.6443 8.67472 23.6443 8.67314 23.6443C8.67156 23.6443 8.66997 23.6443 8.66838 23.6443C8.66679 23.6443 8.6652 23.6443 8.66359 23.6443C8.66199 23.6443 8.66038 23.6443 8.65877 23.6443C8.65716 23.6443 8.65554 23.6443 8.65391 23.6443C8.65229 23.6443 8.65066 23.6443 8.64902 23.6443C8.64739 23.6443 8.64574 23.6443 8.6441 23.6443C8.64245 23.6443 8.64079 23.6443 8.63914 23.6443C8.63748 23.6443 8.63581 23.6443 8.63414 23.6443C8.63247 23.6443 8.63079 23.6443 8.62911 23.6443C8.62743 23.6443 8.62574 23.6443 8.62405 23.6443C8.62235 23.6443 8.62066 23.6443 8.61895 23.6443C8.61725 23.6443 8.61553 23.6443 8.61382 23.6443C8.6121 23.6443 8.61038 23.6443 8.60865 23.6443C8.60692 23.6443 8.60519 23.6443 8.60345 23.6443C8.60171 23.6443 8.59997 23.6443 8.59822 23.6443C8.59647 23.6443 8.59471 23.6443 8.59295 23.6443C8.59118 23.6443 8.58942 23.6443 8.58764 23.6443C8.58587 23.6443 8.58409 23.6443 8.5823 23.6443C8.58052 23.6443 8.57873 23.6443 8.57693 23.6443C8.57514 23.6443 8.57333 23.6443 8.57153 23.6443C8.56972 23.6443 8.5679 23.6443 8.56608 23.6443C8.56427 23.6443 8.56244 23.6443 8.56061 23.6443C8.55878 23.6443 8.55694 23.6443 8.5551 23.6443C8.55326 23.6443 8.55141 23.6443 8.54956 23.6443C8.5477 23.6443 8.54584 23.6443 8.54398 23.6443C8.54211 23.6443 8.54024 23.6443 8.53836 23.6443C8.53649 23.6443 8.53461 23.6443 8.53272 23.6443C8.53083 23.6443 8.52894 23.6443 8.52704 23.6443C8.52514 23.6443 8.52323 23.6443 8.52132 23.6443C8.51941 23.6443 8.51749 23.6443 8.51557 23.6443C8.51365 23.6443 8.51172 23.6443 8.50979 23.6443C8.50785 23.6443 8.50591 23.6443 8.50397 23.6443C8.50202 23.6443 8.50007 23.6443 8.49811 23.6443C8.49616 23.6443 8.49419 23.6443 8.49223 23.6443C8.49026 23.6443 8.48829 23.6443 8.48631 23.6443C8.48433 23.6443 8.48234 23.6443 8.48035 23.6443C8.47836 23.6443 8.47636 23.6443 8.47436 23.6443C8.47236 23.6443 8.47035 23.6443 8.46833 23.6443C8.46632 23.6443 8.4643 23.6443 8.46228 23.6443C8.46025 23.6443 8.45822 23.6443 8.45618 23.6443C8.45414 23.6443 8.4521 23.6443 8.45005 23.6443C8.44801 23.6443 8.44595 23.6443 8.44389 23.6443C8.44183 23.6443 8.43977 23.6443 8.4377 23.6443C8.43562 23.6443 8.43355 23.6443 8.43146 23.6443C8.42938 23.6443 8.42729 23.6443 8.4252 23.6443C8.42311 23.6443 8.42101 23.6443 8.4189 23.6443C8.41679 23.6443 8.41468 23.6443 8.41257 23.6443C8.41045 23.6443 8.40833 23.6443 8.4062 23.6443C8.40407 23.6443 8.40194 23.6443 8.3998 23.6443C8.39766 23.6443 8.39551 23.6443 8.39336 23.6443C8.39121 23.6443 8.38905 23.6443 8.38689 23.6443C8.38473 23.6443 8.38256 23.6443 8.38038 23.6443C8.37821 23.6443 8.37603 23.6443 8.37384 23.6443C8.37166 23.6443 8.36947 23.6443 8.36727 23.6443C8.36507 23.6443 8.36287 23.6443 8.36066 23.6443C8.35845 23.6443 8.35624 23.6443 8.35402 23.6443C8.3518 23.6443 8.34957 23.6443 8.34734 23.6443C8.34511 23.6443 8.34287 23.6443 8.34063 23.6443C8.33839 23.6443 8.33614 23.6443 8.33388 23.6443C8.33163 23.6443 8.32937 23.6443 8.3271 23.6443C8.32484 23.6443 8.32257 23.6443 8.32029 23.6443C8.31801 23.6443 8.31573 23.6443 8.31344 23.6443C8.31115 23.6443 8.30886 23.6443 8.30656 23.6443C8.30426 23.6443 8.30195 23.6443 8.29964 23.6443C8.29733 23.6443 8.29501 23.6443 8.29269 23.6443C8.29037 23.6443 8.28804 23.6443 8.2857 23.6443C8.28337 23.6443 8.28103 23.6443 8.27868 23.6443C8.27634 23.6443 8.27399 23.6443 8.27163 23.6443C8.26927 23.6443 8.26691 23.6443 8.26454 23.6443C8.26217 23.6443 8.2598 23.6443 8.25742 23.6443C8.25504 23.6443 8.25265 23.6443 8.25026 23.6443C8.24787 23.6443 8.24547 23.6443 8.24307 23.6443C8.24066 23.6443 8.23825 23.6443 8.23584 23.6443C8.23343 23.6443 8.231 23.6443 8.22858 23.6443C8.22615 23.6443 8.22372 23.6443 8.22128 23.6443C8.21885 23.6443 8.2164 23.6443 8.21395 23.6443C8.21151 23.6443 8.20905 23.6443 8.20659 23.6443C8.20413 23.6443 8.20166 23.6443 8.19919 23.6443C8.19672 23.6443 8.19424 23.6443 8.19176 23.6443C8.18928 23.6443 8.18679 23.6443 8.18429 23.6443C8.1818 23.6443 8.1793 23.6443 8.17679 23.6443C8.17429 23.6443 8.17177 23.6443 8.16926 23.6443C8.16674 23.6443 8.16422 23.6443 8.16169 23.6443C8.15916 23.6443 8.15662 23.6443 8.15408 23.6443C8.15154 23.6443 8.149 23.6443 8.14645 23.6443C8.14389 23.6443 8.14134 23.6443 8.13877 23.6443C8.13621 23.6443 8.13364 23.6443 8.13107 23.6443C8.12849 23.6443 8.12591 23.6443 8.12332 23.6443C8.12074 23.6443 8.11815 23.6443 8.11555 23.6443C8.11295 23.6443 8.11035 23.6443 8.10774 23.6443C8.10513 23.6443 8.10251 23.6443 8.09989 23.6443C8.09727 23.6443 8.09465 23.6443 8.09202 23.6443C8.08938 23.6443 8.08675 23.6443 8.0841 23.6443C8.08146 23.6443 8.07881 23.6443 8.07615 23.6443C8.0735 23.6443 8.07084 23.6443 8.06817 23.6443C8.06551 23.6443 8.06283 23.6443 8.06016 23.6443C8.05748 23.6443 8.0548 23.6443 8.05211 23.6443C8.04942 23.6443 8.04672 23.6443 8.04402 23.6443C8.04132 23.6443 8.03861 23.6443 8.0359 23.6443C8.03319 23.6443 8.03047 23.6443 8.02775 23.6443C8.02503 23.6443 8.0223 23.6443 8.01956 23.6443C8.01683 23.6443 8.01409 23.6443 8.01134 23.6443C8.00859 23.6443 8.00584 23.6443 8.00308 23.6443C8.00033 23.6443 7.99756 23.6443 7.99479 23.6443C7.99202 23.6443 7.98925 23.6443 7.98647 23.6443C7.98369 23.6443 7.9809 23.6443 7.97811 23.6443C7.97532 23.6443 7.97252 23.6443 7.96971 23.6443C7.96691 23.6443 7.9641 23.6443 7.96129 23.6443C7.95847 23.6443 7.95565 23.6443 7.95282 23.6443C7.95 23.6443 7.94717 23.6443 7.94433 23.6443C7.94149 23.6443 7.93865 23.6443 7.9358 23.6443C7.93295 23.6443 7.93009 23.6443 7.92723 23.6443C7.92437 23.6443 7.9215 23.6443 7.91863 23.6443C7.91576 23.6443 7.91288 23.6443 7.91 23.6443C7.90711 23.6443 7.90422 23.6443 7.90133 23.6443C7.89843 23.6443 7.89553 23.6443 7.89263 23.6443C7.88972 23.6443 7.88681 23.6443 7.88389 23.6443C7.88097 23.6443 7.87805 23.6443 7.87512 23.6443C7.87219 23.6443 7.86925 23.6443 7.86631 23.6443C7.86337 23.6443 7.86042 23.6443 7.85747 23.6443C7.85452 23.6443 7.85156 23.6443 7.8486 23.6443C7.84563 23.6443 7.84266 23.6443 7.83969 23.6443C7.83671 23.6443 7.83373 23.6443 7.83074 23.6443C7.82776 23.6443 7.82477 23.6443 7.82177 23.6443C7.81877 23.6443 7.81576 23.6443 7.81276 23.6443C7.80975 23.6443 7.80673 23.6443 7.80371 23.6443C7.80069 23.6443 7.79766 23.6443 7.79463 23.6443C7.7916 23.6443 7.78856 23.6443 7.78551 23.6443C7.78247 23.6443 7.77942 23.6443 7.77636 23.6443C7.77331 23.6443 7.77025 23.6443 7.76718 23.6443C7.76411 23.6443 7.76104 23.6443 7.75796 23.6443C7.75489 23.6443 7.7518 23.6443 7.74871 23.6443C7.74562 23.6443 7.74253 23.6443 7.73942 23.6443C7.73632 23.6443 7.73322 23.6443 7.7301 23.6443C7.72699 23.6443 7.72387 23.6443 7.72075 23.6443C7.71762 23.6443 7.71449 23.6443 7.71136 23.6443C7.70822 23.6443 7.70508 23.6443 7.70194 23.6443C7.69879 23.6443 7.69564 23.6443 7.69248 23.6443C7.68932 23.6443 7.68615 23.6443 7.68298 23.6443C7.67981 23.6443 7.67664 23.6443 7.67346 23.6443C7.67028 23.6443 7.66709 23.6443 7.6639 23.6443C7.6607 23.6443 7.65751 23.6443 7.6543 23.6443C7.6511 23.6443 7.64789 23.6443 7.64467 23.6443C7.64146 23.6443 7.63823 23.6443 7.63501 23.6443C7.63178 23.6443 7.62855 23.6443 7.62531 23.6443C7.62207 23.6443 7.61883 23.6443 7.61558 23.6443C7.61233 23.6443 7.60907 23.6443 7.60581 23.6443C7.60255 23.6443 7.59928 23.6443 7.59601 23.6443C7.59273 23.6443 7.58946 23.6443 7.58617 23.6443C7.58289 23.6443 7.5796 23.6443 7.5763 23.6443C7.57301 23.6443 7.5697 23.6443 7.5664 23.6443C7.56309 23.6443 7.55978 23.6443 7.55646 23.6443C7.55314 23.6443 7.54981 23.6443 7.54648 23.6443C7.54315 23.6443 7.53982 23.6443 7.53648 23.6443C7.53314 23.6443 7.52979 23.6443 7.52643 23.6443C7.52308 23.6443 7.51972 23.6443 7.51636 23.6443C7.51299 23.6443 7.50962 23.6443 7.50625 23.6443C7.50287 23.6443 7.49949 23.6443 7.4961 23.6443C7.49272 23.6443 7.48932 23.6443 7.48592 23.6443C7.48253 23.6443 7.47912 23.6443 7.47571 23.6443C7.4723 23.6443 7.46888 23.6443 7.46546 23.6443C7.46204 23.6443 7.45861 23.6443 7.45518 23.6443C7.45175 23.6443 7.44831 23.6443 7.44486 23.6443C7.44142 23.6443 7.43797 23.6443 7.43451 23.6443C7.43106 23.6443 7.4276 23.6443 7.42413 23.6443C7.42066 23.6443 7.41719 23.6443 7.41371 23.6443C7.41023 23.6443 7.40674 23.6443 7.40325 23.6443C7.39976 23.6443 7.39627 23.6443 7.39277 23.6443C7.38926 23.6443 7.38576 23.6443 7.38224 23.6443C7.37873 23.6443 7.37521 23.6443 7.37169 23.6443C7.36816 23.6443 7.36463 23.6443 7.36109 23.6443C7.35756 23.6443 7.35402 23.6443 7.35047 23.6443C7.34692 23.6443 7.34337 23.6443 7.33981 23.6443C7.33625 23.6443 7.33269 23.6443 7.32911 23.6443C7.32554 23.6443 7.32197 23.6443 7.31839 23.6443C7.3148 23.6443 7.31122 23.6443 7.30762 23.6443C7.30403 23.6443 7.30043 23.6443 7.29683 23.6443C7.29322 23.6443 7.28961 23.6443 7.28599 23.6443C7.28238 23.6443 7.27876 23.6443 7.27513 23.6443C7.2715 23.6443 7.26787 23.6443 7.26423 23.6443C7.26059 23.6443 7.25694 23.6443 7.25329 23.6443C7.24964 23.6443 7.24599 23.6443 7.24232 23.6443C7.23866 23.6443 7.23499 23.6443 7.23132 23.6443C7.22765 23.6443 7.22397 23.6443 7.22028 23.6443C7.2166 23.6443 7.21291 23.6443 7.20921 23.6443C7.20551 23.6443 7.20181 23.6443 7.1981 23.6443C7.1944 23.6443 7.19068 23.6443 7.18696 23.6443C7.18324 23.6443 7.17952 23.6443 7.17579 23.6443C7.17206 23.6443 7.16832 23.6443 7.16458 23.6443C7.16084 23.6443 7.15709 23.6443 7.15334 23.6443C7.14958 23.6443 7.14582 23.6443 7.14206 23.6443C7.13829 23.6443 7.13452 23.6443 7.13075 23.6443C7.12697 23.6443 7.12319 23.6443 7.1194 23.6443C7.11561 23.6443 7.11182 23.6443 7.10802 23.6443C7.10422 23.6443 7.10041 23.6443 7.0966 23.6443C7.09279 23.6443 7.08897 23.6443 7.08515 23.6443C7.08133 23.6443 7.0775 23.6443 7.07367 23.6443C7.06983 23.6443 7.066 23.6443 7.06215 23.6443C7.0583 23.6443 7.05445 23.6443 7.0506 23.6443C7.04674 23.6443 7.04288 23.6443 7.03901 23.6443C7.03514 23.6443 7.03127 23.6443 7.02739 23.6443C7.02351 23.6443 7.01962 23.6443 7.01573 23.6443C7.01184 23.6443 7.00795 23.6443 7.00404 23.6443C7.00014 23.6443 6.99623 23.6443 6.99232 23.6443C6.9884 23.6443 6.98448 23.6443 6.98056 23.6443C6.97663 23.6443 6.9727 23.6443 6.96877 23.6443C6.96483 23.6443 6.96089 23.6443 6.95694 23.6443C6.95299 23.6443 6.94904 23.6443 6.94508 23.6443C6.94112 23.6443 6.93715 23.6443 6.93318 23.6443C6.92921 23.6443 6.92523 23.6443 6.92125 23.6443C6.91727 23.6443 6.91328 23.6443 6.90929 23.6443C6.90529 23.6443 6.90129 23.6443 6.89729 23.6443C6.89328 23.6443 6.88927 23.6443 6.88525 23.6443C6.88124 23.6443 6.87721 23.6443 6.87318 23.6443C6.86916 23.6443 6.86512 23.6443 6.86108 23.6443C6.85704 23.6443 6.853 23.6443 6.84895 23.6443C6.84489 23.6443 6.84084 23.6443 6.83678 23.6443C6.83271 23.6443 6.82864 23.6443 6.82457 23.6443C6.8205 23.6443 6.81642 23.6443 6.81233 23.6443C6.80824 23.6443 6.80415 23.6443 6.80006 23.6443C6.79596 23.6443 6.79186 23.6443 6.78775 23.6443C6.78364 23.6443 6.77953 23.6443 6.77541 23.6443C6.77129 23.6443 6.76716 23.6443 6.76303 23.6443C6.7589 23.6443 6.75476 23.6443 6.75062 23.6443C6.74647 23.6443 6.74233 23.6443 6.73817 23.6443C6.73402 23.6443 6.72986 23.6443 6.72569 23.6443C6.72153 23.6443 6.71735 23.6443 6.71318 23.6443C6.709 23.6443 6.70482 23.6443 6.70063 23.6443C6.69644 23.6443 6.69225 23.6443 6.68805 23.6443C6.68385 23.6443 6.67964 23.6443 6.67543 23.6443C6.67122 23.6443 6.667 23.6443 6.66278 23.6443C6.65855 23.6443 6.65433 23.6443 6.65009 23.6443C6.64586 23.6443 6.64162 23.6443 6.63737 23.6443C6.63312 23.6443 6.62887 23.6443 6.62462 23.6443C6.62036 23.6443 6.6161 23.6443 6.61183 23.6443C6.60756 23.6443 6.60328 23.6443 6.599 23.6443C6.59472 23.6443 6.59044 23.6443 6.58615 23.6443C6.58185 23.6443 6.57756 23.6443 6.57325 23.6443C6.56895 23.6443 6.56464 23.6443 6.56033 23.6443C6.55601 23.6443 6.55169 23.6443 6.54737 23.6443C6.54304 23.6443 6.53871 23.6443 6.53437 23.6443C6.53003 23.6443 6.52569 23.6443 6.52134 23.6443C6.51699 23.6443 6.51264 23.6443 6.50828 23.6443C6.50392 23.6443 6.49955 23.6443 6.49518 23.6443C6.49081 23.6443 6.48643 23.6443 6.48205 23.6443C6.47766 23.6443 6.47328 23.6443 6.46888 23.6443C6.46449 23.6443 6.46009 23.6443 6.45568 23.6443C6.45127 23.6443 6.44686 23.6443 6.44244 23.6443C6.43803 23.6443 6.4336 23.6443 6.42917 23.6443C6.42475 23.6443 6.42031 23.6443 6.41587 23.6443C6.41143 23.6443 6.40698 23.6443 6.40253 23.6443C6.39808 23.6443 6.39362 23.6443 6.38916 23.6443C6.3847 23.6443 6.38023 23.6443 6.37575 23.6443C6.37128 23.6443 6.3668 23.6443 6.36231 23.6443C6.35782 23.6443 6.35333 23.6443 6.34884 23.6443C6.34434 23.6443 6.33983 23.6443 6.33533 23.6443C6.33082 23.6443 6.3263 23.6443 6.32178 23.6443C6.31726 23.6443 6.31273 23.6443 6.3082 23.6443C6.30367 23.6443 6.29913 23.6443 6.29459 23.6443C6.29004 23.6443 6.2855 23.6443 6.28094 23.6443C6.27639 23.6443 6.27183 23.6443 6.26726 23.6443C6.26269 23.6443 6.25812 23.6443 6.25354 23.6443C6.24896 23.6443 6.24438 23.6443 6.23979 23.6443C6.2352 23.6443 6.23061 23.6443 6.22601 23.6443C6.22141 23.6443 6.2168 23.6443 6.21219 23.6443C6.20758 23.6443 6.20296 23.6443 6.19833 23.6443C6.19371 23.6443 6.18908 23.6443 6.18445 23.6443C6.17981 23.6443 6.17517 23.6443 6.17052 23.6443C6.16588 23.6443 6.16123 23.6443 6.15657 23.6443C6.15191 23.6443 6.14725 23.6443 6.14258 23.6443C6.13791 23.6443 6.13323 23.6443 6.12855 23.6443C6.12387 23.6443 6.11918 23.6443 6.11449 23.6443C6.1098 23.6443 6.1051 23.6443 6.1004 23.6443C6.09569 23.6443 6.09098 23.6443 6.08627 23.6443C6.08155 23.6443 6.07683 23.6443 6.07211 23.6443C6.06738 23.6443 6.06265 23.6443 6.05791 23.6443C6.05317 23.6443 6.04843 23.6443 6.04368 23.6443C6.03893 23.6443 6.03417 23.6443 6.02941 23.6443C6.02465 23.6443 6.01989 23.6443 6.01511 23.6443C6.01034 23.6443 6.00556 23.6443 6.00078 23.6443C5.99599 23.6443 5.9912 23.6443 5.98641 23.6443C5.98161 23.6443 5.97681 23.6443 5.97201 23.6443C5.9672 23.6443 5.96239 23.6443 5.95757 23.6443C5.95275 23.6443 5.94793 23.6443 5.9431 23.6443C5.93827 23.6443 5.93343 23.6443 5.92859 23.6443C5.92375 23.6443 5.9189 23.6443 5.91405 23.6443C5.9092 23.6443 5.90434 23.6443 5.89948 23.6443C5.89461 23.6443 5.88974 23.6443 5.88487 23.6443C5.87999 23.6443 5.87511 23.6443 5.87022 23.6443C5.86534 23.6443 5.86044 23.6443 5.85555 23.6443C5.85065 23.6443 5.84574 23.6443 5.84083 23.6443C5.83592 23.6443 5.83101 23.6443 5.82609 23.6443C5.82117 23.6443 5.81624 23.6443 5.81131 23.6443C5.80637 23.6443 5.80143 23.6443 5.79649 23.6443C5.79155 23.6443 5.7866 23.6443 5.78164 23.6443C5.77669 23.6443 5.77172 23.6443 5.76676 23.6443C5.76179 23.6443 5.75682 23.6443 5.75184 23.6443C5.74686 23.6443 5.74188 23.6443 5.73689 23.6443C5.7319 23.6443 5.7269 23.6443 5.7219 23.6443C5.7169 23.6443 5.71189 23.6443 5.70688 23.6443C5.70187 23.6443 5.69685 23.6443 5.69182 23.6443C5.6868 23.6443 5.68177 23.6443 5.67673 23.6443C5.6717 23.6443 5.66666 23.6443 5.66161 23.6443C5.65656 23.6443 5.65151 23.6443 5.64645 23.6443C5.64139 23.6443 5.63633 23.6443 5.63126 23.6443C5.62619 23.6443 5.62111 23.6443 5.61603 23.6443C5.61095 23.6443 5.60586 23.6443 5.60077 23.6443C5.59567 23.6443 5.59058 23.6443 5.58547 23.6443C5.58037 23.6443 5.57526 23.6443 5.57014 23.6443C5.56503 23.6443 5.5599 23.6443 5.55478 23.6443C5.54965 23.6443 5.54452 23.6443 5.53938 23.6443C5.53424 23.6443 5.52909 23.6443 5.52394 23.6443C5.51879 23.6443 5.51364 23.6443 5.50848 23.6443C5.50332 23.6443 5.49815 23.6443 5.49297 23.6443C5.4878 23.6443 5.48262 23.6443 5.47744 23.6443C5.47225 23.6443 5.46706 23.6443 5.46187 23.6443C5.45667 23.6443 5.45147 23.6443 5.44626 23.6443C5.44106 23.6443 5.43584 23.6443 5.43062 23.6443C5.4254 23.6443 5.42018 23.6443 5.41495 23.6443C5.40972 23.6443 5.40448 23.6443 5.39924 23.6443C5.394 23.6443 5.38875 23.6443 5.3835 23.6443C5.37825 23.6443 5.37299 23.6443 5.36772 23.6443C5.36246 23.6443 5.35719 23.6443 5.35191 23.6443C5.34663 23.6443 5.34135 23.6443 5.33607 23.6443C5.33078 23.6443 5.32548 23.6443 5.32019 23.6443C5.31489 23.6443 5.30958 23.6443 5.30427 23.6443C5.29896 23.6443 5.29364 23.6443 5.28832 23.6443C5.283 23.6443 5.27767 23.6443 5.27234 23.6443C5.26701 23.6443 5.26167 23.6443 5.25632 23.6443C5.25098 23.6443 5.24563 23.6443 5.24027 23.6443C5.23491 23.6443 5.22955 23.6443 5.22419 23.6443C5.21882 23.6443 5.21344 23.6443 5.20807 23.6443C5.20269 23.6443 5.1973 23.6443 5.19191 23.6443C5.18652 23.6443 5.18112 23.6443 5.17572 23.6443C5.17032 23.6443 5.16491 23.6443 5.1595 23.6443C5.15408 23.6443 5.14867 23.6443 5.14324 23.6443C5.13782 23.6443 5.13238 23.6443 5.12695 23.6443C5.12151 23.6443 5.11607 23.6443 5.11062 23.6443C5.10517 23.6443 5.09972 23.6443 5.09426 23.6443C5.0888 23.6443 5.08334 23.6443 5.07787 23.6443C5.0724 23.6443 5.06692 23.6443 5.06144 23.6443C5.05595 23.6443 5.05047 23.6443 5.04497 23.6443C5.03948 23.6443 5.03398 23.6443 5.02848 23.6443C5.02297 23.6443 5.01746 23.6443 5.01194 23.6443C5.00643 23.6443 5.0009 23.6443 4.99538 23.6443C4.98985 23.6443 4.98431 23.6443 4.97878 23.6443C4.97324 23.6443 4.96769 23.6443 4.96214 23.6443C4.95659 23.6443 4.95103 23.6443 4.94547 23.6443C4.93991 23.6443 4.93434 23.6443 4.92877 23.6443C4.92319 23.6443 4.91761 23.6443 4.91203 23.6443C4.90644 23.6443 4.90085 23.6443 4.89525 23.6443C4.88966 23.6443 4.88406 23.6443 4.87845 23.6443C4.87284 23.6443 4.86723 23.6443 4.86161 23.6443C4.85599 23.6443 4.85036 23.6443 4.84473 23.6443C4.8391 23.6443 4.83346 23.6443 4.82782 23.6443C4.82218 23.6443 4.81653 23.6443 4.81088 23.6443C4.80522 23.6443 4.79956 23.6443 4.7939 23.6443C4.78823 23.6443 4.78256 23.6443 4.77688 23.6443C4.77121 23.6443 4.76552 23.6443 4.75984 23.6443C4.75415 23.6443 4.74845 23.6443 4.74275 23.6443C4.73705 23.6443 4.73135 23.6443 4.72564 23.6443C4.71993 23.6443 4.71421 23.6443 4.70849 23.6443C4.70276 23.6443 4.69704 23.6443 4.6913 23.6443C4.68557 23.6443 4.67983 23.6443 4.67408 23.6443C4.66834 23.6443 4.66259 23.6443 4.65683 23.6443C4.65107 23.6443 4.64531 23.6443 4.63954 23.6443C4.63377 23.6443 4.628 23.6443 4.62222 23.6443C4.61644 23.6443 4.61065 23.6443 4.60486 23.6443C4.59907 23.6443 4.59327 23.6443 4.58747 23.6443C4.58167 23.6443 4.57586 23.6443 4.57005 23.6443C4.56423 23.6443 4.55841 23.6443 4.55259 23.6443C4.54676 23.6443 4.54093 23.6443 4.53509 23.6443C4.52925 23.6443 4.52341 23.6443 4.51756 23.6443C4.51171 23.6443 4.50586 23.6443 4.5 23.6443V25.2443ZM1.8 10.4442C1.79987 9.43002 2.19873 8.75408 2.59112 8.32359C2.79094 8.10438 2.99069 7.94791 3.13749 7.84803C3.21044 7.79839 3.26888 7.7637 3.30566 7.74306C3.324 7.73276 3.33679 7.72605 3.34312 7.7228C3.34627 7.72118 3.3478 7.72043 3.34758 7.72054C3.34747 7.72059 3.34692 7.72086 3.34591 7.72135C3.34541 7.72159 3.3448 7.72188 3.34407 7.72223C3.3437 7.7224 3.34331 7.72259 3.34289 7.72279C3.34267 7.72289 3.34233 7.72305 3.34223 7.7231C3.34188 7.72327 3.34153 7.72343 3 7C2.65847 6.27657 2.6581 6.27674 2.65772 6.27692C2.65759 6.27698 2.6572 6.27716 2.65693 6.27729C2.65639 6.27755 2.65581 6.27783 2.6552 6.27812C2.65399 6.2787 2.65265 6.27934 2.65119 6.28004C2.64826 6.28145 2.64484 6.28312 2.64095 6.28503C2.63315 6.28887 2.62345 6.29373 2.61195 6.29963C2.58898 6.31144 2.55879 6.32745 2.52244 6.34786C2.44983 6.38863 2.352 6.44724 2.23742 6.5252C2.00917 6.6805 1.70887 6.91638 1.40864 7.24575C0.800964 7.91242 0.199815 8.95866 0.2 10.4444L1.8 10.4442Z" fill="black"/>
<path d="M9 20.9444V18.9444C9 17.8398 9.89543 16.9444 11 16.9444H13C14.1046 16.9444 15 17.8398 15 18.9444V22.4444C15 23.549 15.8948 24.4444 16.9994 24.4444C18.3369 24.4444 19.9493 24.4444 20.5 24.4444C21.5 24.4444 22.9739 22.4444 23 21.4444C23.0261 20.4444 23.2996 10.4443 23 9.44434C22.7195 8.50791 14.6329 2.30949 13.6067 1.5258C13.5352 1.47118 13.4684 1.41184 13.3965 1.35774C13.1048 1.13824 12.2169 0.63319 11 1.4444C9.5 2.44429 7 4.4444 7 4.4444" stroke="black" stroke-width="1.6" stroke-linecap="round"/>
</svg>
