<svg width="25" height="25" viewBox="0 0 25 25" fill="none" xmlns="http://www.w3.org/2000/svg">
<path d="M20.8333 7.29183H17.7083C17.1558 7.29183 16.6259 7.07234 16.2352 6.68164C15.8445 6.29093 15.625 5.76103 15.625 5.2085V2.0835" stroke="black" stroke-width="1.5" stroke-linecap="round" stroke-linejoin="round"/>
<path d="M9.37435 18.7502C8.82181 18.7502 8.29191 18.5307 7.90121 18.14C7.51051 17.7493 7.29102 17.2194 7.29102 16.6668V4.16683C7.29102 3.61429 7.51051 3.08439 7.90121 2.69369C8.29191 2.30299 8.82181 2.0835 9.37435 2.0835H16.666L20.8327 6.25016V16.6668C20.8327 17.2194 20.6132 17.7493 20.2225 18.14C19.8318 18.5307 19.3019 18.7502 18.7493 18.7502H9.37435Z" stroke="black" stroke-width="1.5" stroke-linecap="round" stroke-linejoin="round"/>
<path d="M3.125 7.9165V21.2498C3.125 21.6919 3.30059 22.1158 3.61316 22.4283C3.92572 22.7409 4.34964 22.9165 4.79167 22.9165H15" stroke="black" stroke-width="1.5" stroke-linecap="round" stroke-linejoin="round"/>
</svg>
